<svg id="_x31_px" enable-background="new 0 0 24 24" height="512" viewBox="0 0 24 24" width="512" xmlns="http://www.w3.org/2000/svg"><path d="m12 4c-.276 0-.5-.224-.5-.5v-3c0-.276.224-.5.5-.5s.5.224.5.5v3c0 .276-.224.5-.5.5z"/><path d="m20.41 4.09c-.128 0-.256-.049-.354-.146-.195-.195-.195-.512 0-.707l3.09-3.09c.195-.195.512-.195.707 0s.195.512 0 .707l-3.09 3.09c-.097.097-.225.146-.353.146z"/><path d="m.5 24c-.128 0-.256-.049-.354-.146-.195-.195-.195-.512 0-.707l3.09-3.09c.195-.195.512-.195.707 0s.195.512 0 .707l-3.09 3.09c-.097.097-.225.146-.353.146z"/><path d="m3.59 4.09c-.128 0-.256-.049-.354-.146l-3.09-3.09c-.195-.195-.195-.512 0-.707s.512-.195.707 0l3.09 3.09c.195.195.195.512 0 .707-.097.097-.225.146-.353.146z"/><path d="m23.5 24c-.128 0-.256-.049-.354-.146l-3.09-3.09c-.195-.195-.195-.512 0-.707s.512-.195.707 0l3.09 3.09c.195.195.195.512 0 .707-.097.097-.225.146-.353.146z"/><path d="m19.5 18h-3.764c-.953 0-1.81-.529-2.236-1.382l-.158-.317c-.26-.519-.762-.829-1.342-.829s-1.082.31-1.342.829l-.158.317c-.427.853-1.283 1.382-2.236 1.382h-3.764c-1.379 0-2.5-1.122-2.5-2.5v-7c0-1.378 1.121-2.5 2.5-2.5h15c1.379 0 2.5 1.122 2.5 2.5v7c0 1.378-1.121 2.5-2.5 2.5zm-7.5-3.528c.953 0 1.81.529 2.236 1.382l.158.317c.256.511.77.829 1.342.829h3.764c.827 0 1.5-.673 1.5-1.5v-7c0-.827-.673-1.5-1.5-1.5h-15c-.827 0-1.5.673-1.5 1.5v7c0 .827.673 1.5 1.5 1.5h3.764c.572 0 1.086-.318 1.342-.829l.158-.316c.426-.854 1.283-1.383 2.236-1.383z"/><path d="m8.5 14h-2c-.827 0-1.5-.673-1.5-1.5v-2c0-.827.673-1.5 1.5-1.5h2c.827 0 1.5.673 1.5 1.5v2c0 .827-.673 1.5-1.5 1.5zm-2-4c-.275 0-.5.224-.5.5v2c0 .276.225.5.5.5h2c.275 0 .5-.224.5-.5v-2c0-.276-.225-.5-.5-.5z"/><path d="m17.5 14h-2c-.827 0-1.5-.673-1.5-1.5v-2c0-.827.673-1.5 1.5-1.5h2c.827 0 1.5.673 1.5 1.5v2c0 .827-.673 1.5-1.5 1.5zm-2-4c-.275 0-.5.224-.5.5v2c0 .276.225.5.5.5h2c.275 0 .5-.224.5-.5v-2c0-.276-.225-.5-.5-.5z"/><path d="m2.5 14.5h-2c-.276 0-.5-.224-.5-.5v-4c0-.276.224-.5.5-.5h2c.276 0 .5.224.5.5s-.224.5-.5.5h-1.5v3h1.5c.276 0 .5.224.5.5s-.224.5-.5.5z"/><path d="m23.5 14.5h-2c-.276 0-.5-.224-.5-.5s.224-.5.5-.5h1.5v-3h-1.5c-.276 0-.5-.224-.5-.5s.224-.5.5-.5h2c.276 0 .5.224.5.5v4c0 .276-.224.5-.5.5z"/><path d="m12 24c-.276 0-.5-.224-.5-.5v-3c0-.276.224-.5.5-.5s.5.224.5.5v3c0 .276-.224.5-.5.5z"/></svg>